# xmcd CD database file
#
# Track frame offsets:
#	187
#	22272
#	41177
#	58787
#	79842
#	98872
#	116852
#	136047
#	150702
#	171344
#
# Disc length: 2544 seconds
#
# Revision: 4
# Processed by: cddbd v1.5PL3 Copyright (c) Steve Scherf et al.
# Submitted via: CDex 1.51
#
DISCID=8a09ee0a
DTITLE=Night Ranger - 7 Wishes
DYEAR=1985
DGENRE=Hard Rock
TTITLE0=Seven Wishes
TTITLE1=Faces
TTITLE2=Four In The Morning
TTITLE3=I Need A Woman
TTITLE4=Sentimental Street
TTITLE5=This Boy Needs To Rock
TTITLE6=I Will Follow You
TTITLE7=Interstate Love Affair
TTITLE8=Night Machine
TTITLE9=Goodbye
EXTD=YEAR: 1985
EXTT0=
EXTT1=
EXTT2=
EXTT3=
EXTT4=
EXTT5=
EXTT6=
EXTT7=
EXTT8=
EXTT9=
PLAYORDER=
